<svg height="512pt" viewBox="0 -6 512 512" width="512pt" xmlns="http://www.w3.org/2000/svg"><path d="m500.757812 250.378906c0 138.28125-112.097656 250.378906-250.378906 250.378906s-250.378906-112.097656-250.378906-250.378906 112.097656-250.378906 250.378906-250.378906 250.378906 112.097656 250.378906 250.378906zm0 0" fill="#fdb44c"/><path d="m223.808594 448.640625v50.726563c-57.722656-6.089844-109.609375-31.804688-148.847656-70.332032 1.824218-.535156 3.773437-.835937 5.773437-.835937h122.636719c11.285156 0 20.4375 9.152343 20.4375 20.441406zm-20.4375-224.832031h-122.636719c-11.289063 0-20.4375 9.148437-20.4375 20.4375v122.636718c0 11.289063 9.148437 20.4375 20.4375 20.4375h122.636719c11.285156 0 20.4375-9.148437 20.4375-20.4375v-122.636718c0-11.289063-9.152344-20.4375-20.4375-20.4375zm0-204.390625h-122.636719c-11.289063 0-20.4375 9.148437-20.4375 20.4375v122.636719c0 11.289062 9.148437 20.4375 20.4375 20.4375h122.636719c11.285156 0 20.4375-9.148438 20.4375-20.4375v-122.636719c0-11.289063-9.152344-20.4375-20.4375-20.4375zm0 0" fill="#fc5426"/><path d="m223.808594 244.246094v122.636718c0 11.289063-9.152344 20.4375-20.4375 20.4375h-81.757813c-11.289062 0-20.441406-9.148437-20.441406-20.4375v-122.636718c0-11.289063 9.152344-20.4375 20.441406-20.4375h81.757813c11.285156 0 20.4375 9.148437 20.4375 20.4375zm-20.4375-224.828125h-81.757813c-11.289062 0-20.441406 9.148437-20.441406 20.4375v122.636719c0 11.289062 9.152344 20.4375 20.441406 20.4375h81.757813c11.285156 0 20.4375-9.148438 20.4375-20.4375v-122.636719c0-11.289063-9.152344-20.4375-20.4375-20.4375zm0 0" fill="#fc6930"/><path d="m274.90625 438.417969c0 5.644531-4.574219 10.222656-10.21875 10.222656s-10.21875-4.578125-10.21875-10.222656 4.574219-10.21875 10.21875-10.21875 10.21875 4.574219 10.21875 10.21875zm20.4375-10.21875c-5.644531 0-10.21875 4.574219-10.21875 10.21875s4.574219 10.222656 10.21875 10.222656 10.222656-4.578125 10.222656-10.222656-4.578125-10.21875-10.222656-10.21875zm30.660156 0c-5.644531 0-10.21875 4.574219-10.21875 10.21875s4.574219 10.222656 10.21875 10.222656c5.644532 0 10.21875-4.578125 10.21875-10.222656s-4.574218-10.21875-10.21875-10.21875zm0 0" fill="#fc6930"/><path d="m512 300.457031v10.21875c0 2.820313-2.289062 5.109375-5.109375 5.109375h-237.09375c-2.820313 0-5.109375-2.289062-5.109375-5.109375v-10.21875c0-2.824219 2.289062-5.113281 5.109375-5.113281h237.09375c2.820313 0 5.109375 2.289062 5.109375 5.113281zm-247.3125-235.050781v-10.21875c0-2.824219 2.289062-5.113281 5.109375-5.113281h183.953125c2.820312 0 5.109375 2.289062 5.109375 5.113281v10.21875c0 2.820312-2.289063 5.109375-5.109375 5.109375h-183.953125c-2.820313 0-5.109375-2.289063-5.109375-5.109375zm5.109375 45.988281h204.390625c2.820312 0 5.109375-2.289062 5.109375-5.109375v-10.222656c0-2.820312-2.289063-5.109375-5.109375-5.109375h-204.390625c-2.820313 0-5.109375 2.289063-5.109375 5.109375v10.222656c0 2.820313 2.289062 5.109375 5.109375 5.109375zm0 40.875h122.632813c2.824218 0 5.109374-2.285156 5.109374-5.109375v-10.21875c0-2.820312-2.285156-5.109375-5.109374-5.109375h-122.632813c-2.820313 0-5.109375 2.289063-5.109375 5.109375v10.21875c0 2.824219 2.289062 5.109375 5.109375 5.109375zm0 122.636719h183.953125c2.820312 0 5.109375-2.289062 5.109375-5.109375v-10.21875c0-2.824219-2.289063-5.109375-5.109375-5.109375h-183.953125c-2.820313 0-5.109375 2.285156-5.109375 5.109375v10.21875c0 2.820313 2.289062 5.109375 5.109375 5.109375zm122.632813 61.316406h-122.632813c-2.820313 0-5.109375 2.289063-5.109375 5.109375v10.222657c0 2.820312 2.289062 5.109374 5.109375 5.109374h122.632813c2.824218 0 5.109374-2.289062 5.109374-5.109374v-10.222657c0-2.820312-2.285156-5.109375-5.109374-5.109375zm0 0" fill="#fd8f01"/><path d="m230.4375 24.589844 11.441406 11.441406c3.160156 3.160156 3.160156 8.285156 0 11.445312l-110.898437 110.894532c-6.316407 6.320312-16.5625 6.320312-22.882813 0l-55.652344-55.652344c-3.160156-3.160156-3.160156-8.28125 0-11.441406l11.441407-11.441406c3.160156-3.160157 8.28125-3.160157 11.441406 0l38.492187 38.488281c3.160157 3.160156 8.28125 3.160156 11.441407 0l93.734375-93.734375c3.15625-3.160156 8.28125-3.160156 11.441406 0zm-11.441406 204.394531-93.734375 93.734375c-3.160157 3.160156-8.285157 3.160156-11.445313 0l-38.488281-38.492188c-3.160156-3.160156-8.28125-3.160156-11.441406 0l-11.441407 11.441407c-3.160156 3.160156-3.160156 8.285156 0 11.441406l55.652344 55.652344c6.316406 6.320312 16.5625 6.320312 22.882813 0l110.898437-110.898438c3.160156-3.15625 3.160156-8.28125 0-11.441406l-11.441406-11.441406c-3.160156-3.15625-8.285156-3.15625-11.441406.003906zm0 0" fill="#fff5f5"/></svg>